ply
format ascii 1.0
element vertex 343
property float end_x
property float end_y
property float end_z
property int path_id
property int group_id
end_header
2.175312 -2.065918 0.000000 0 0
2.279006 -1.950931 0.000000 1 0
2.376629 -1.830747 0.000000 2 0
2.467922 -1.705686 0.000000 3 0
2.552640 -1.576081 0.000000 4 0
2.630558 -1.442278 0.000000 5 0
2.701469 -1.304633 0.000000 6 0
2.332344 -1.886842 0.000000 7 0
2.426589 -1.763991 0.000000 8 0
2.514371 -1.636441 0.000000 9 0
2.595454 -1.504532 0.000000 10 0
2.669624 -1.368615 0.000000 11 0
2.736682 -1.229053 0.000000 12 0
2.796450 -1.086216 0.000000 13 0
2.474675 -1.695873 0.000000 14 0
2.558878 -1.565933 0.000000 15 0
2.636264 -1.431821 0.000000 16 0
2.706628 -1.293896 0.000000 17 0
2.769782 -1.152523 0.000000 18 0
2.825557 -1.008081 0.000000 19 0
2.873806 -0.860953 0.000000 20 0
2.601408 -1.494215 0.000000 21 0
2.675037 -1.358004 0.000000 22 0
2.741541 -1.218177 0.000000 23 0
2.800741 -1.075104 0.000000 24 0
2.852481 -0.929167 0.000000 25 0
2.896622 -0.780755 0.000000 26 0
2.933048 -0.630264 0.000000 27 0
2.711744 -1.283139 0.000000 28 0
2.774336 -1.141517 0.000000 29 0
2.829538 -0.996854 0.000000 30 0
2.877202 -0.849536 0.000000 31 0
2.917201 -0.699954 0.000000 32 0
2.949430 -0.548508 0.000000 33 0
2.973802 -0.395601 0.000000 34 0
2.804988 -1.063975 0.000000 35 0
2.856148 -0.917834 0.000000 36 0
2.899700 -0.769248 0.000000 37 0
2.935527 -0.618613 0.000000 38 0
2.963535 -0.466330 0.000000 39 0
2.983648 -0.312804 0.000000 40 0
2.995813 -0.158446 0.000000 41 0
2.880552 -0.838105 0.000000 42 0
2.919958 -0.688366 0.000000 43 0
2.951585 -0.536793 0.000000 44 0
2.975350 -0.383790 0.000000 45 0
2.991188 -0.229766 0.000000 46 0
2.999059 -0.075129 0.000000 47 0
2.998941 0.079709 0.000000 48 0
2.410870 -1.785415 0.000000 49 1
2.499777 -1.658648 0.000000 50 1
2.582026 -1.527462 0.000000 51 1
2.657397 -1.392208 0.000000 52 1
2.725689 -1.253244 0.000000 53 1
2.786720 -1.110943 0.000000 54 1
2.840327 -0.965682 0.000000 55 1
2.544907 -1.588537 0.000000 56 1
2.623478 -1.455116 0.000000 57 1
2.695061 -1.317819 0.000000 58 1
2.759464 -1.177011 0.000000 59 1
2.816517 -1.033069 0.000000 60 1
2.866067 -0.886374 0.000000 61 1
2.907982 -0.737318 0.000000 62 1
2.662904 -1.381645 0.000000 63 1
2.730643 -1.242412 0.000000 64 1
2.791109 -1.099869 0.000000 65 1
2.844139 -0.954396 0.000000 66 1
2.889593 -0.806381 0.000000 67 1
2.927350 -0.656218 0.000000 68 1
2.957309 -0.504307 0.000000 69 1
2.764116 -1.166045 0.000000 70 1
2.820597 -1.021877 0.000000 71 1
2.869564 -0.874987 0.000000 72 1
2.910887 -0.725766 0.000000 73 1
2.944456 -0.574611 0.000000 74 1
2.970182 -0.421926 0.000000 75 1
2.987995 -0.268117 0.000000 76 1
2.847906 -0.943096 0.000000 77 1
2.892772 -0.794901 0.000000 78 1
2.929932 -0.644590 0.000000 79 1
2.959288 -0.492561 0.000000 80 1
2.980760 -0.339219 0.000000 81 1
2.994292 -0.184975 0.000000 82 1
2.999848 -0.030237 0.000000 83 1
2.913746 -0.714202 0.000000 84 1
2.946714 -0.562915 0.000000 85 1
2.971833 -0.410129 0.000000 86 1
2.989036 -0.256251 0.000000 87 1
2.998276 -0.101690 0.000000 88 1
2.999529 0.053142 0.000000 89 1
2.992792 0.207833 0.000000 90 1
2.961220 -0.480806 0.000000 91 1
2.982083 -0.327381 0.000000 92 1
2.995003 -0.173084 0.000000 93 1
2.999944 -0.018326 0.000000 94 1
2.996894 0.136481 0.000000 95 1
2.985860 0.290925 0.000000 96 1
2.966873 0.444593 0.000000 97 1
2.610487 -1.478296 0.000000 98 2
2.683283 -1.341638 0.000000 99 2
2.748931 -1.201407 0.000000 100 2
2.807256 -1.057975 0.000000 101 2
2.858104 -0.911725 0.000000 102 2
2.901338 -0.763046 0.000000 103 2
2.936843 -0.612335 0.000000 104 2
2.719532 -1.266550 0.000000 105 2
2.781257 -1.124548 0.000000 106 2
2.835574 -0.979551 0.000000 107 2
2.882337 -0.831944 0.000000 108 2
2.921423 -0.682121 0.000000 109 2
2.952726 -0.530481 0.000000 110 2
2.976163 -0.377428 0.000000 111 2
2.811435 -1.046820 0.000000 112 2
2.861701 -0.900369 0.000000 113 2
2.904345 -0.751520 0.000000 114 2
2.939251 -0.600669 0.000000 115 2
2.966328 -0.448218 0.000000 116 2
2.985503 -0.294572 0.000000 117 2
2.996725 -0.140143 0.000000 118 2
2.885618 -0.820493 0.000000 119 2
2.924108 -0.670516 0.000000 120 2
2.954809 -0.518753 0.000000 121 2
2.977638 -0.365608 0.000000 122 2
2.992536 -0.211489 0.000000 123 2
2.999462 -0.056807 0.000000 124 2
2.998398 0.098026 0.000000 125 2
2.941613 -0.588994 0.000000 126 2
2.968084 -0.436436 0.000000 127 2
2.986649 -0.282716 0.000000 128 2
2.997258 -0.128243 0.000000 129 2
2.999882 0.026572 0.000000 130 2
2.994516 0.181316 0.000000 131 2
2.981172 0.335578 0.000000 132 2
2.979067 -0.353782 0.000000 133 2
2.993352 -0.199605 0.000000 134 2
2.999664 -0.044897 0.000000 135 2
2.997985 0.109931 0.000000 136 2
2.988320 0.264466 0.000000 137 2
2.970695 0.418297 0.000000 138 2
2.945156 0.571013 0.000000 139 2
2.997743 -0.116341 0.000000 140 2
2.999753 0.038483 0.000000 141 2
2.993772 0.193205 0.000000 142 2
2.979816 0.347412 0.000000 143 2
2.957923 0.500693 0.000000 144 2
2.928150 0.652641 0.000000 145 2
2.890576 0.802850 0.000000 146 2
2.771188 -1.149139 0.000000 147 3
2.826787 -1.004628 0.000000 148 3
2.874856 -0.857441 0.000000 149 3
2.915266 -0.707971 0.000000 150 3
2.947911 -0.556614 0.000000 151 3
2.972704 -0.403775 0.000000 152 3
2.989577 -0.249860 0.000000 153 3
2.853614 -0.925681 0.000000 154 3
2.897574 -0.777216 0.000000 155 3
2.933815 -0.626680 0.000000 156 3
2.962241 -0.474474 0.000000 157 3
2.982777 -0.321005 0.000000 158 3
2.995366 -0.166680 0.000000 159 3
2.999976 -0.011912 0.000000 160 3
2.918054 -0.696390 0.000000 161 3
2.950098 -0.544905 0.000000 162 3
2.974283 -0.391968 0.000000 163 3
2.990545 -0.237987 0.000000 164 3
2.998841 -0.083372 0.000000 165 3
2.999149 0.071464 0.000000 166 3
2.991467 0.226111 0.000000 167 3
2.964102 -0.462709 0.000000 168 3
2.984028 -0.309159 0.000000 169 3
2.996004 -0.154786 0.000000 170 3
3.000000 0.000000 0.000000 171 3
2.996004 0.154786 0.000000 172 3
2.984028 0.309159 0.000000 173 3
2.964102 0.462709 0.000000 174 3
2.991467 -0.226111 0.000000 175 3
2.999149 -0.071464 0.000000 176 3
2.998841 0.083372 0.000000 177 3
2.990545 0.237987 0.000000 178 3
2.974283 0.391968 0.000000 179 3
2.950098 0.544905 0.000000 180 3
2.918054 0.696390 0.000000 181 3
2.999976 0.011912 0.000000 182 3
2.995366 0.166680 0.000000 183 3
2.982777 0.321005 0.000000 184 3
2.962241 0.474474 0.000000 185 3
2.933815 0.626680 0.000000 186 3
2.897574 0.777216 0.000000 187 3
2.853614 0.925681 0.000000 188 3
2.989577 0.249860 0.000000 189 3
2.972704 0.403775 0.000000 190 3
2.947911 0.556614 0.000000 191 3
2.915266 0.707971 0.000000 192 3
2.874856 0.857441 0.000000 193 3
2.826787 1.004628 0.000000 194 3
2.771188 1.149139 0.000000 195 3
2.890576 -0.802850 0.000000 196 4
2.928150 -0.652641 0.000000 197 4
2.957923 -0.500693 0.000000 198 4
2.979816 -0.347412 0.000000 199 4
2.993772 -0.193205 0.000000 200 4
2.999753 -0.038483 0.000000 201 4
2.997743 0.116341 0.000000 202 4
2.945156 -0.571013 0.000000 203 4
2.970695 -0.418297 0.000000 204 4
2.988320 -0.264466 0.000000 205 4
2.997985 -0.109931 0.000000 206 4
2.999664 0.044897 0.000000 207 4
2.993352 0.199605 0.000000 208 4
2.979067 0.353782 0.000000 209 4
2.981172 -0.335578 0.000000 210 4
2.994516 -0.181316 0.000000 211 4
2.999882 -0.026572 0.000000 212 4
2.997258 0.128243 0.000000 213 4
2.986649 0.282716 0.000000 214 4
2.968084 0.436436 0.000000 215 4
2.941613 0.588994 0.000000 216 4
2.998398 -0.098026 0.000000 217 4
2.999462 0.056807 0.000000 218 4
2.992536 0.211489 0.000000 219 4
2.977638 0.365608 0.000000 220 4
2.954809 0.518753 0.000000 221 4
2.924108 0.670516 0.000000 222 4
2.885618 0.820493 0.000000 223 4
2.996725 0.140143 0.000000 224 4
2.985503 0.294572 0.000000 225 4
2.966328 0.448218 0.000000 226 4
2.939251 0.600669 0.000000 227 4
2.904345 0.751520 0.000000 228 4
2.861701 0.900369 0.000000 229 4
2.811435 1.046820 0.000000 230 4
2.976163 0.377428 0.000000 231 4
2.952726 0.530481 0.000000 232 4
2.921423 0.682121 0.000000 233 4
2.882337 0.831944 0.000000 234 4
2.835574 0.979551 0.000000 235 4
2.781257 1.124548 0.000000 236 4
2.719532 1.266550 0.000000 237 4
2.936843 0.612335 0.000000 238 4
2.901338 0.763046 0.000000 239 4
2.858104 0.911725 0.000000 240 4
2.807256 1.057975 0.000000 241 4
2.748931 1.201407 0.000000 242 4
2.683283 1.341638 0.000000 243 4
2.610487 1.478296 0.000000 244 4
2.966873 -0.444593 0.000000 245 5
2.985860 -0.290925 0.000000 246 5
2.996894 -0.136481 0.000000 247 5
2.999944 0.018326 0.000000 248 5
2.995003 0.173084 0.000000 249 5
2.982083 0.327381 0.000000 250 5
2.961220 0.480806 0.000000 251 5
2.992792 -0.207833 0.000000 252 5
2.999529 -0.053142 0.000000 253 5
2.998276 0.101690 0.000000 254 5
2.989036 0.256251 0.000000 255 5
2.971833 0.410129 0.000000 256 5
2.946714 0.562915 0.000000 257 5
2.913746 0.714202 0.000000 258 5
2.999848 0.030237 0.000000 259 5
2.994292 0.184975 0.000000 260 5
2.980760 0.339219 0.000000 261 5
2.959288 0.492561 0.000000 262 5
2.929932 0.644590 0.000000 263 5
2.892772 0.794901 0.000000 264 5
2.847906 0.943096 0.000000 265 5
2.987995 0.268117 0.000000 266 5
2.970182 0.421926 0.000000 267 5
2.944456 0.574611 0.000000 268 5
2.910887 0.725766 0.000000 269 5
2.869564 0.874987 0.000000 270 5
2.820597 1.021877 0.000000 271 5
2.764116 1.166045 0.000000 272 5
2.957309 0.504307 0.000000 273 5
2.927350 0.656218 0.000000 274 5
2.889593 0.806381 0.000000 275 5
2.844139 0.954396 0.000000 276 5
2.791109 1.099869 0.000000 277 5
2.730643 1.242412 0.000000 278 5
2.662904 1.381645 0.000000 279 5
2.907982 0.737318 0.000000 280 5
2.866067 0.886374 0.000000 281 5
2.816517 1.033069 0.000000 282 5
2.759464 1.177011 0.000000 283 5
2.695061 1.317819 0.000000 284 5
2.623478 1.455116 0.000000 285 5
2.544907 1.588537 0.000000 286 5
2.840327 0.965682 0.000000 287 5
2.786720 1.110943 0.000000 288 5
2.725689 1.253244 0.000000 289 5
2.657397 1.392208 0.000000 290 5
2.582026 1.527462 0.000000 291 5
2.499777 1.658648 0.000000 292 5
2.410870 1.785415 0.000000 293 5
2.998941 -0.079709 0.000000 294 6
2.999059 0.075129 0.000000 295 6
2.991188 0.229766 0.000000 296 6
2.975350 0.383790 0.000000 297 6
2.951585 0.536793 0.000000 298 6
2.919958 0.688366 0.000000 299 6
2.880552 0.838105 0.000000 300 6
2.995813 0.158446 0.000000 301 6
2.983648 0.312804 0.000000 302 6
2.963535 0.466330 0.000000 303 6
2.935527 0.618613 0.000000 304 6
2.899700 0.769248 0.000000 305 6
2.856148 0.917834 0.000000 306 6
2.804988 1.063975 0.000000 307 6
2.973802 0.395601 0.000000 308 6
2.949430 0.548508 0.000000 309 6
2.917201 0.699954 0.000000 310 6
2.877202 0.849536 0.000000 311 6
2.829538 0.996854 0.000000 312 6
2.774336 1.141517 0.000000 313 6
2.711744 1.283139 0.000000 314 6
2.933048 0.630264 0.000000 315 6
2.896622 0.780755 0.000000 316 6
2.852481 0.929167 0.000000 317 6
2.800741 1.075104 0.000000 318 6
2.741541 1.218177 0.000000 319 6
2.675037 1.358004 0.000000 320 6
2.601408 1.494215 0.000000 321 6
2.873806 0.860953 0.000000 322 6
2.825557 1.008081 0.000000 323 6
2.769782 1.152523 0.000000 324 6
2.706628 1.293896 0.000000 325 6
2.636264 1.431821 0.000000 326 6
2.558878 1.565933 0.000000 327 6
2.474675 1.695873 0.000000 328 6
2.796450 1.086216 0.000000 329 6
2.736682 1.229053 0.000000 330 6
2.669624 1.368615 0.000000 331 6
2.595454 1.504532 0.000000 332 6
2.514371 1.636441 0.000000 333 6
2.426589 1.763991 0.000000 334 6
2.332344 1.886842 0.000000 335 6
2.701469 1.304633 0.000000 336 6
2.630558 1.442278 0.000000 337 6
2.552640 1.576081 0.000000 338 6
2.467922 1.705686 0.000000 339 6
2.376629 1.830747 0.000000 340 6
2.279006 1.950931 0.000000 341 6
2.175312 2.065918 0.000000 342 6
