ply
format ascii 1.0
element vertex 707
property float x
property float y
property float z
property int group_id
end_header
0.000000 0.000000 0.000000 0
0.010000 -0.000037 0.000000 0
0.019999 -0.000147 0.000000 0
0.029998 -0.000330 0.000000 0
0.039996 -0.000586 0.000000 0
0.049992 -0.000916 0.000000 0
0.059985 -0.001319 0.000000 0
0.069977 -0.001796 0.000000 0
0.079966 -0.002345 0.000000 0
0.089951 -0.002968 0.000000 0
0.099933 -0.003664 0.000000 0
0.109911 -0.004434 0.000000 0
0.119884 -0.005276 0.000000 0
0.129852 -0.006192 0.000000 0
0.139816 -0.007181 0.000000 0
0.149773 -0.008243 0.000000 0
0.159725 -0.009378 0.000000 0
0.169670 -0.010586 0.000000 0
0.179608 -0.011867 0.000000 0
0.189539 -0.013221 0.000000 0
0.199463 -0.014648 0.000000 0
0.209378 -0.016148 0.000000 0
0.219285 -0.017720 0.000000 0
0.229183 -0.019366 0.000000 0
0.239072 -0.021084 0.000000 0
0.248951 -0.022875 0.000000 0
0.258820 -0.024739 0.000000 0
0.268679 -0.026676 0.000000 0
0.278527 -0.028685 0.000000 0
0.288363 -0.030766 0.000000 0
0.298188 -0.032920 0.000000 0
0.308001 -0.035147 0.000000 0
0.317802 -0.037446 0.000000 0
0.327589 -0.039817 0.000000 0
0.337363 -0.042260 0.000000 0
0.347124 -0.044776 0.000000 0
0.356871 -0.047363 0.000000 0
0.366603 -0.050023 0.000000 0
0.376320 -0.052754 0.000000 0
0.386022 -0.055558 0.000000 0
0.395709 -0.058433 0.000000 0
0.405379 -0.061380 0.000000 0
0.415033 -0.064399 0.000000 0
0.424671 -0.067489 0.000000 0
0.434291 -0.070651 0.000000 0
0.443893 -0.073884 0.000000 0
0.453478 -0.077189 0.000000 0
0.463044 -0.080564 0.000000 0
0.472591 -0.084011 0.000000 0
0.482119 -0.087529 0.000000 0
0.491627 -0.091118 0.000000 0
0.501116 -0.094777 0.000000 0
0.510584 -0.098508 0.000000 0
0.520032 -0.102309 0.000000 0
0.529458 -0.106181 0.000000 0
0.538863 -0.110123 0.000000 0
0.548246 -0.114135 0.000000 0
0.557606 -0.118218 0.000000 0
0.566944 -0.122370 0.000000 0
0.576259 -0.126593 0.000000 0
0.585550 -0.130886 0.000000 0
0.594818 -0.135248 0.000000 0
0.604061 -0.139681 0.000000 0
0.613279 -0.144182 0.000000 0
0.622473 -0.148753 0.000000 0
0.631641 -0.153394 0.000000 0
0.640783 -0.158103 0.000000 0
0.649900 -0.162882 0.000000 0
0.658989 -0.167729 0.000000 0
0.668052 -0.172646 0.000000 0
0.677087 -0.177631 0.000000 0
0.686095 -0.182684 0.000000 0
0.695075 -0.187806 0.000000 0
0.704026 -0.192996 0.000000 0
0.712948 -0.198254 0.000000 0
0.721841 -0.203580 0.000000 0
0.730705 -0.208974 0.000000 0
0.739539 -0.214436 0.000000 0
0.748342 -0.219965 0.000000 0
0.757114 -0.225562 0.000000 0
0.765856 -0.231225 0.000000 0
0.774566 -0.236956 0.000000 0
0.783244 -0.242754 0.000000 0
0.791889 -0.248619 0.000000 0
0.800503 -0.254550 0.000000 0
0.809083 -0.260547 0.000000 0
0.817630 -0.266611 0.000000 0
0.826143 -0.272741 0.000000 0
0.834622 -0.278937 0.000000 0
0.843067 -0.285198 0.000000 0
0.851477 -0.291526 0.000000 0
0.859852 -0.297918 0.000000 0
0.868191 -0.304376 0.000000 0
0.876494 -0.310899 0.000000 0
0.884761 -0.317487 0.000000 0
0.892991 -0.324140 0.000000 0
0.901185 -0.330857 0.000000 0
0.909340 -0.337639 0.000000 0
0.917459 -0.344485 0.000000 0
0.925539 -0.351394 0.000000 0
0.933580 -0.358368 0.000000 0
0.000000 0.000000 0.000000 1
0.010000 -0.000024 0.000000 1
0.020000 -0.000098 0.000000 1
0.029999 -0.000220 0.000000 1
0.039998 -0.000391 0.000000 1
0.049996 -0.000611 0.000000 1
0.059994 -0.000880 0.000000 1
0.069990 -0.001197 0.000000 1
0.079985 -0.001564 0.000000 1
0.089978 -0.001979 0.000000 1
0.099970 -0.002443 0.000000 1
0.109960 -0.002956 0.000000 1
0.119948 -0.003518 0.000000 1
0.129934 -0.004129 0.000000 1
0.139918 -0.004788 0.000000 1
0.149899 -0.005497 0.000000 1
0.159878 -0.006254 0.000000 1
0.169853 -0.007060 0.000000 1
0.179826 -0.007914 0.000000 1
0.189795 -0.008818 0.000000 1
0.199761 -0.009770 0.000000 1
0.209724 -0.010771 0.000000 1
0.219682 -0.011821 0.000000 1
0.229637 -0.012919 0.000000 1
0.239587 -0.014066 0.000000 1
0.249534 -0.015262 0.000000 1
0.259475 -0.016507 0.000000 1
0.269413 -0.017800 0.000000 1
0.279345 -0.019142 0.000000 1
0.289272 -0.020532 0.000000 1
0.299194 -0.021971 0.000000 1
0.309111 -0.023459 0.000000 1
0.319022 -0.024996 0.000000 1
0.328928 -0.026580 0.000000 1
0.338827 -0.028214 0.000000 1
0.348721 -0.029896 0.000000 1
0.358608 -0.031626 0.000000 1
0.368489 -0.033405 0.000000 1
0.378363 -0.035233 0.000000 1
0.388231 -0.037109 0.000000 1
0.398091 -0.039033 0.000000 1
0.407944 -0.041006 0.000000 1
0.417790 -0.043027 0.000000 1
0.427629 -0.045097 0.000000 1
0.437459 -0.047214 0.000000 1
0.447282 -0.049380 0.000000 1
0.457097 -0.051595 0.000000 1
0.466904 -0.053857 0.000000 1
0.476702 -0.056168 0.000000 1
0.486492 -0.058527 0.000000 1
0.496273 -0.060935 0.000000 1
0.506045 -0.063390 0.000000 1
0.515808 -0.065894 0.000000 1
0.525562 -0.068445 0.000000 1
0.535306 -0.071045 0.000000 1
0.545041 -0.073692 0.000000 1
0.554766 -0.076388 0.000000 1
0.564480 -0.079132 0.000000 1
0.574185 -0.081923 0.000000 1
0.583880 -0.084763 0.000000 1
0.593563 -0.087650 0.000000 1
0.603237 -0.090585 0.000000 1
0.612899 -0.093568 0.000000 1
0.622550 -0.096598 0.000000 1
0.632190 -0.099677 0.000000 1
0.641819 -0.102803 0.000000 1
0.651436 -0.105976 0.000000 1
0.661042 -0.109198 0.000000 1
0.670635 -0.112466 0.000000 1
0.680216 -0.115783 0.000000 1
0.689786 -0.119147 0.000000 1
0.699342 -0.122558 0.000000 1
0.708886 -0.126017 0.000000 1
0.718418 -0.129523 0.000000 1
0.727936 -0.133076 0.000000 1
0.737441 -0.136677 0.000000 1
0.746933 -0.140325 0.000000 1
0.756412 -0.144020 0.000000 1
0.765876 -0.147762 0.000000 1
0.775327 -0.151551 0.000000 1
0.784764 -0.155387 0.000000 1
0.794187 -0.159271 0.000000 1
0.803595 -0.163201 0.000000 1
0.812989 -0.167178 0.000000 1
0.822368 -0.171203 0.000000 1
0.831733 -0.175274 0.000000 1
0.841082 -0.179391 0.000000 1
0.850416 -0.183556 0.000000 1
0.859735 -0.187767 0.000000 1
0.869038 -0.192025 0.000000 1
0.878325 -0.196329 0.000000 1
0.887597 -0.200680 0.000000 1
0.896852 -0.205077 0.000000 1
0.906091 -0.209521 0.000000 1
0.915314 -0.214011 0.000000 1
0.924520 -0.218547 0.000000 1
0.933709 -0.223130 0.000000 1
0.942882 -0.227759 0.000000 1
0.952037 -0.232434 0.000000 1
0.961175 -0.237155 0.000000 1
0.970296 -0.241922 0.000000 1
0.000000 0.000000 0.000000 2
0.010000 -0.000012 0.000000 2
0.020000 -0.000049 0.000000 2
0.030000 -0.000110 0.000000 2
0.040000 -0.000195 0.000000 2
0.049999 -0.000305 0.000000 2
0.059998 -0.000440 0.000000 2
0.069997 -0.000599 0.000000 2
0.079996 -0.000782 0.000000 2
0.089995 -0.000990 0.000000 2
0.099993 -0.001222 0.000000 2
0.109990 -0.001478 0.000000 2
0.119987 -0.001759 0.000000 2
0.129984 -0.002065 0.000000 2
0.139980 -0.002394 0.000000 2
0.149975 -0.002749 0.000000 2
0.159969 -0.003127 0.000000 2
0.169963 -0.003531 0.000000 2
0.179956 -0.003958 0.000000 2
0.189949 -0.004410 0.000000 2
0.199940 -0.004886 0.000000 2
0.209931 -0.005387 0.000000 2
0.219921 -0.005912 0.000000 2
0.229909 -0.006462 0.000000 2
0.239897 -0.007036 0.000000 2
0.249883 -0.007635 0.000000 2
0.259869 -0.008258 0.000000 2
0.269853 -0.008905 0.000000 2
0.279836 -0.009576 0.000000 2
0.289818 -0.010273 0.000000 2
0.299799 -0.010993 0.000000 2
0.309778 -0.011738 0.000000 2
0.319755 -0.012507 0.000000 2
0.329732 -0.013301 0.000000 2
0.339707 -0.014119 0.000000 2
0.349680 -0.014962 0.000000 2
0.359652 -0.015829 0.000000 2
0.369622 -0.016720 0.000000 2
0.379591 -0.017635 0.000000 2
0.389557 -0.018575 0.000000 2
0.399522 -0.019540 0.000000 2
0.409486 -0.020529 0.000000 2
0.419447 -0.021542 0.000000 2
0.429407 -0.022579 0.000000 2
0.439364 -0.023641 0.000000 2
0.449320 -0.024728 0.000000 2
0.459274 -0.025838 0.000000 2
0.469225 -0.026973 0.000000 2
0.479175 -0.028133 0.000000 2
0.489122 -0.029316 0.000000 2
0.499067 -0.030524 0.000000 2
0.509010 -0.031757 0.000000 2
0.518951 -0.033013 0.000000 2
0.528889 -0.034294 0.000000 2
0.538825 -0.035600 0.000000 2
0.548759 -0.036930 0.000000 2
0.558690 -0.038284 0.000000 2
0.568618 -0.039662 0.000000 2
0.578544 -0.041065 0.000000 2
0.588468 -0.042492 0.000000 2
0.598389 -0.043943 0.000000 2
0.608307 -0.045419 0.000000 2
0.618222 -0.046918 0.000000 2
0.628135 -0.048443 0.000000 2
0.638045 -0.049991 0.000000 2
0.647952 -0.051564 0.000000 2
0.657856 -0.053161 0.000000 2
0.667757 -0.054782 0.000000 2
0.677655 -0.056428 0.000000 2
0.687550 -0.058098 0.000000 2
0.697442 -0.059792 0.000000 2
0.707331 -0.061510 0.000000 2
0.717216 -0.063253 0.000000 2
0.727099 -0.065020 0.000000 2
0.736978 -0.066811 0.000000 2
0.746854 -0.068626 0.000000 2
0.756726 -0.070466 0.000000 2
0.766595 -0.072330 0.000000 2
0.776461 -0.074218 0.000000 2
0.786323 -0.076130 0.000000 2
0.796182 -0.078066 0.000000 2
0.806037 -0.080027 0.000000 2
0.815889 -0.082012 0.000000 2
0.825736 -0.084021 0.000000 2
0.835580 -0.086054 0.000000 2
0.845421 -0.088111 0.000000 2
0.855257 -0.090193 0.000000 2
0.865090 -0.092299 0.000000 2
0.874919 -0.094429 0.000000 2
0.884744 -0.096583 0.000000 2
0.894565 -0.098761 0.000000 2
0.904382 -0.100963 0.000000 2
0.914195 -0.103190 0.000000 2
0.924003 -0.105440 0.000000 2
0.933808 -0.107715 0.000000 2
0.943608 -0.110014 0.000000 2
0.953405 -0.112337 0.000000 2
0.963197 -0.114684 0.000000 2
0.972984 -0.117055 0.000000 2
0.982767 -0.119450 0.000000 2
0.992546 -0.121869 0.000000 2
0.000000 0.000000 0.000000 3
0.010000 0.000000 0.000000 3
0.020000 0.000000 0.000000 3
0.030000 0.000000 0.000000 3
0.040000 0.000000 0.000000 3
0.050000 0.000000 0.000000 3
0.060000 0.000000 0.000000 3
0.070000 0.000000 0.000000 3
0.080000 0.000000 0.000000 3
0.090000 0.000000 0.000000 3
0.100000 0.000000 0.000000 3
0.110000 0.000000 0.000000 3
0.120000 0.000000 0.000000 3
0.130000 0.000000 0.000000 3
0.140000 0.000000 0.000000 3
0.150000 0.000000 0.000000 3
0.160000 0.000000 0.000000 3
0.170000 0.000000 0.000000 3
0.180000 0.000000 0.000000 3
0.190000 0.000000 0.000000 3
0.200000 0.000000 0.000000 3
0.210000 0.000000 0.000000 3
0.220000 0.000000 0.000000 3
0.230000 0.000000 0.000000 3
0.240000 0.000000 0.000000 3
0.250000 0.000000 0.000000 3
0.260000 0.000000 0.000000 3
0.270000 0.000000 0.000000 3
0.280000 0.000000 0.000000 3
0.290000 0.000000 0.000000 3
0.300000 0.000000 0.000000 3
0.310000 0.000000 0.000000 3
0.320000 0.000000 0.000000 3
0.330000 0.000000 0.000000 3
0.340000 0.000000 0.000000 3
0.350000 0.000000 0.000000 3
0.360000 0.000000 0.000000 3
0.370000 0.000000 0.000000 3
0.380000 0.000000 0.000000 3
0.390000 0.000000 0.000000 3
0.400000 0.000000 0.000000 3
0.410000 0.000000 0.000000 3
0.420000 0.000000 0.000000 3
0.430000 0.000000 0.000000 3
0.440000 0.000000 0.000000 3
0.450000 0.000000 0.000000 3
0.460000 0.000000 0.000000 3
0.470000 0.000000 0.000000 3
0.480000 0.000000 0.000000 3
0.490000 0.000000 0.000000 3
0.500000 0.000000 0.000000 3
0.510000 0.000000 0.000000 3
0.520000 0.000000 0.000000 3
0.530000 0.000000 0.000000 3
0.540000 0.000000 0.000000 3
0.550000 0.000000 0.000000 3
0.560000 0.000000 0.000000 3
0.570000 0.000000 0.000000 3
0.580000 0.000000 0.000000 3
0.590000 0.000000 0.000000 3
0.600000 0.000000 0.000000 3
0.610000 0.000000 0.000000 3
0.620000 0.000000 0.000000 3
0.630000 0.000000 0.000000 3
0.640000 0.000000 0.000000 3
0.650000 0.000000 0.000000 3
0.660000 0.000000 0.000000 3
0.670000 0.000000 0.000000 3
0.680000 0.000000 0.000000 3
0.690000 0.000000 0.000000 3
0.700000 0.000000 0.000000 3
0.710000 0.000000 0.000000 3
0.720000 0.000000 0.000000 3
0.730000 0.000000 0.000000 3
0.740000 0.000000 0.000000 3
0.750000 0.000000 0.000000 3
0.760000 0.000000 0.000000 3
0.770000 0.000000 0.000000 3
0.780000 0.000000 0.000000 3
0.790000 0.000000 0.000000 3
0.800000 0.000000 0.000000 3
0.810000 0.000000 0.000000 3
0.820000 0.000000 0.000000 3
0.830000 0.000000 0.000000 3
0.840000 0.000000 0.000000 3
0.850000 0.000000 0.000000 3
0.860000 0.000000 0.000000 3
0.870000 0.000000 0.000000 3
0.880000 0.000000 0.000000 3
0.890000 0.000000 0.000000 3
0.900000 0.000000 0.000000 3
0.910000 0.000000 0.000000 3
0.920000 0.000000 0.000000 3
0.930000 0.000000 0.000000 3
0.940000 0.000000 0.000000 3
0.950000 0.000000 0.000000 3
0.960000 0.000000 0.000000 3
0.970000 0.000000 0.000000 3
0.980000 0.000000 0.000000 3
0.990000 0.000000 0.000000 3
1.000000 0.000000 0.000000 3
0.000000 0.000000 0.000000 4
0.010000 0.000012 0.000000 4
0.020000 0.000049 0.000000 4
0.030000 0.000110 0.000000 4
0.040000 0.000195 0.000000 4
0.049999 0.000305 0.000000 4
0.059998 0.000440 0.000000 4
0.069997 0.000599 0.000000 4
0.079996 0.000782 0.000000 4
0.089995 0.000990 0.000000 4
0.099993 0.001222 0.000000 4
0.109990 0.001478 0.000000 4
0.119987 0.001759 0.000000 4
0.129984 0.002065 0.000000 4
0.139980 0.002394 0.000000 4
0.149975 0.002749 0.000000 4
0.159969 0.003127 0.000000 4
0.169963 0.003531 0.000000 4
0.179956 0.003958 0.000000 4
0.189949 0.004410 0.000000 4
0.199940 0.004886 0.000000 4
0.209931 0.005387 0.000000 4
0.219921 0.005912 0.000000 4
0.229909 0.006462 0.000000 4
0.239897 0.007036 0.000000 4
0.249883 0.007635 0.000000 4
0.259869 0.008258 0.000000 4
0.269853 0.008905 0.000000 4
0.279836 0.009576 0.000000 4
0.289818 0.010273 0.000000 4
0.299799 0.010993 0.000000 4
0.309778 0.011738 0.000000 4
0.319755 0.012507 0.000000 4
0.329732 0.013301 0.000000 4
0.339707 0.014119 0.000000 4
0.349680 0.014962 0.000000 4
0.359652 0.015829 0.000000 4
0.369622 0.016720 0.000000 4
0.379591 0.017635 0.000000 4
0.389557 0.018575 0.000000 4
0.399522 0.019540 0.000000 4
0.409486 0.020529 0.000000 4
0.419447 0.021542 0.000000 4
0.429407 0.022579 0.000000 4
0.439364 0.023641 0.000000 4
0.449320 0.024728 0.000000 4
0.459274 0.025838 0.000000 4
0.469225 0.026973 0.000000 4
0.479175 0.028133 0.000000 4
0.489122 0.029316 0.000000 4
0.499067 0.030524 0.000000 4
0.509010 0.031757 0.000000 4
0.518951 0.033013 0.000000 4
0.528889 0.034294 0.000000 4
0.538825 0.035600 0.000000 4
0.548759 0.036930 0.000000 4
0.558690 0.038284 0.000000 4
0.568618 0.039662 0.000000 4
0.578544 0.041065 0.000000 4
0.588468 0.042492 0.000000 4
0.598389 0.043943 0.000000 4
0.608307 0.045419 0.000000 4
0.618222 0.046918 0.000000 4
0.628135 0.048443 0.000000 4
0.638045 0.049991 0.000000 4
0.647952 0.051564 0.000000 4
0.657856 0.053161 0.000000 4
0.667757 0.054782 0.000000 4
0.677655 0.056428 0.000000 4
0.687550 0.058098 0.000000 4
0.697442 0.059792 0.000000 4
0.707331 0.061510 0.000000 4
0.717216 0.063253 0.000000 4
0.727099 0.065020 0.000000 4
0.736978 0.066811 0.000000 4
0.746854 0.068626 0.000000 4
0.756726 0.070466 0.000000 4
0.766595 0.072330 0.000000 4
0.776461 0.074218 0.000000 4
0.786323 0.076130 0.000000 4
0.796182 0.078066 0.000000 4
0.806037 0.080027 0.000000 4
0.815889 0.082012 0.000000 4
0.825736 0.084021 0.000000 4
0.835580 0.086054 0.000000 4
0.845421 0.088111 0.000000 4
0.855257 0.090193 0.000000 4
0.865090 0.092299 0.000000 4
0.874919 0.094429 0.000000 4
0.884744 0.096583 0.000000 4
0.894565 0.098761 0.000000 4
0.904382 0.100963 0.000000 4
0.914195 0.103190 0.000000 4
0.924003 0.105440 0.000000 4
0.933808 0.107715 0.000000 4
0.943608 0.110014 0.000000 4
0.953405 0.112337 0.000000 4
0.963197 0.114684 0.000000 4
0.972984 0.117055 0.000000 4
0.982767 0.119450 0.000000 4
0.992546 0.121869 0.000000 4
0.000000 0.000000 0.000000 5
0.010000 0.000024 0.000000 5
0.020000 0.000098 0.000000 5
0.029999 0.000220 0.000000 5
0.039998 0.000391 0.000000 5
0.049996 0.000611 0.000000 5
0.059994 0.000880 0.000000 5
0.069990 0.001197 0.000000 5
0.079985 0.001564 0.000000 5
0.089978 0.001979 0.000000 5
0.099970 0.002443 0.000000 5
0.109960 0.002956 0.000000 5
0.119948 0.003518 0.000000 5
0.129934 0.004129 0.000000 5
0.139918 0.004788 0.000000 5
0.149899 0.005497 0.000000 5
0.159878 0.006254 0.000000 5
0.169853 0.007060 0.000000 5
0.179826 0.007914 0.000000 5
0.189795 0.008818 0.000000 5
0.199761 0.009770 0.000000 5
0.209724 0.010771 0.000000 5
0.219682 0.011821 0.000000 5
0.229637 0.012919 0.000000 5
0.239587 0.014066 0.000000 5
0.249534 0.015262 0.000000 5
0.259475 0.016507 0.000000 5
0.269413 0.017800 0.000000 5
0.279345 0.019142 0.000000 5
0.289272 0.020532 0.000000 5
0.299194 0.021971 0.000000 5
0.309111 0.023459 0.000000 5
0.319022 0.024996 0.000000 5
0.328928 0.026580 0.000000 5
0.338827 0.028214 0.000000 5
0.348721 0.029896 0.000000 5
0.358608 0.031626 0.000000 5
0.368489 0.033405 0.000000 5
0.378363 0.035233 0.000000 5
0.388231 0.037109 0.000000 5
0.398091 0.039033 0.000000 5
0.407944 0.041006 0.000000 5
0.417790 0.043027 0.000000 5
0.427629 0.045097 0.000000 5
0.437459 0.047214 0.000000 5
0.447282 0.049380 0.000000 5
0.457097 0.051595 0.000000 5
0.466904 0.053857 0.000000 5
0.476702 0.056168 0.000000 5
0.486492 0.058527 0.000000 5
0.496273 0.060935 0.000000 5
0.506045 0.063390 0.000000 5
0.515808 0.065894 0.000000 5
0.525562 0.068445 0.000000 5
0.535306 0.071045 0.000000 5
0.545041 0.073692 0.000000 5
0.554766 0.076388 0.000000 5
0.564480 0.079132 0.000000 5
0.574185 0.081923 0.000000 5
0.583880 0.084763 0.000000 5
0.593563 0.087650 0.000000 5
0.603237 0.090585 0.000000 5
0.612899 0.093568 0.000000 5
0.622550 0.096598 0.000000 5
0.632190 0.099677 0.000000 5
0.641819 0.102803 0.000000 5
0.651436 0.105976 0.000000 5
0.661042 0.109198 0.000000 5
0.670635 0.112466 0.000000 5
0.680216 0.115783 0.000000 5
0.689786 0.119147 0.000000 5
0.699342 0.122558 0.000000 5
0.708886 0.126017 0.000000 5
0.718418 0.129523 0.000000 5
0.727936 0.133076 0.000000 5
0.737441 0.136677 0.000000 5
0.746933 0.140325 0.000000 5
0.756412 0.144020 0.000000 5
0.765876 0.147762 0.000000 5
0.775327 0.151551 0.000000 5
0.784764 0.155387 0.000000 5
0.794187 0.159271 0.000000 5
0.803595 0.163201 0.000000 5
0.812989 0.167178 0.000000 5
0.822368 0.171203 0.000000 5
0.831733 0.175274 0.000000 5
0.841082 0.179391 0.000000 5
0.850416 0.183556 0.000000 5
0.859735 0.187767 0.000000 5
0.869038 0.192025 0.000000 5
0.878325 0.196329 0.000000 5
0.887597 0.200680 0.000000 5
0.896852 0.205077 0.000000 5
0.906091 0.209521 0.000000 5
0.915314 0.214011 0.000000 5
0.924520 0.218547 0.000000 5
0.933709 0.223130 0.000000 5
0.942882 0.227759 0.000000 5
0.952037 0.232434 0.000000 5
0.961175 0.237155 0.000000 5
0.970296 0.241922 0.000000 5
0.000000 0.000000 0.000000 6
0.010000 0.000037 0.000000 6
0.019999 0.000147 0.000000 6
0.029998 0.000330 0.000000 6
0.039996 0.000586 0.000000 6
0.049992 0.000916 0.000000 6
0.059985 0.001319 0.000000 6
0.069977 0.001796 0.000000 6
0.079966 0.002345 0.000000 6
0.089951 0.002968 0.000000 6
0.099933 0.003664 0.000000 6
0.109911 0.004434 0.000000 6
0.119884 0.005276 0.000000 6
0.129852 0.006192 0.000000 6
0.139816 0.007181 0.000000 6
0.149773 0.008243 0.000000 6
0.159725 0.009378 0.000000 6
0.169670 0.010586 0.000000 6
0.179608 0.011867 0.000000 6
0.189539 0.013221 0.000000 6
0.199463 0.014648 0.000000 6
0.209378 0.016148 0.000000 6
0.219285 0.017720 0.000000 6
0.229183 0.019366 0.000000 6
0.239072 0.021084 0.000000 6
0.248951 0.022875 0.000000 6
0.258820 0.024739 0.000000 6
0.268679 0.026676 0.000000 6
0.278527 0.028685 0.000000 6
0.288363 0.030766 0.000000 6
0.298188 0.032920 0.000000 6
0.308001 0.035147 0.000000 6
0.317802 0.037446 0.000000 6
0.327589 0.039817 0.000000 6
0.337363 0.042260 0.000000 6
0.347124 0.044776 0.000000 6
0.356871 0.047363 0.000000 6
0.366603 0.050023 0.000000 6
0.376320 0.052754 0.000000 6
0.386022 0.055558 0.000000 6
0.395709 0.058433 0.000000 6
0.405379 0.061380 0.000000 6
0.415033 0.064399 0.000000 6
0.424671 0.067489 0.000000 6
0.434291 0.070651 0.000000 6
0.443893 0.073884 0.000000 6
0.453478 0.077189 0.000000 6
0.463044 0.080564 0.000000 6
0.472591 0.084011 0.000000 6
0.482119 0.087529 0.000000 6
0.491627 0.091118 0.000000 6
0.501116 0.094777 0.000000 6
0.510584 0.098508 0.000000 6
0.520032 0.102309 0.000000 6
0.529458 0.106181 0.000000 6
0.538863 0.110123 0.000000 6
0.548246 0.114135 0.000000 6
0.557606 0.118218 0.000000 6
0.566944 0.122370 0.000000 6
0.576259 0.126593 0.000000 6
0.585550 0.130886 0.000000 6
0.594818 0.135248 0.000000 6
0.604061 0.139681 0.000000 6
0.613279 0.144182 0.000000 6
0.622473 0.148753 0.000000 6
0.631641 0.153394 0.000000 6
0.640783 0.158103 0.000000 6
0.649900 0.162882 0.000000 6
0.658989 0.167729 0.000000 6
0.668052 0.172646 0.000000 6
0.677087 0.177631 0.000000 6
0.686095 0.182684 0.000000 6
0.695075 0.187806 0.000000 6
0.704026 0.192996 0.000000 6
0.712948 0.198254 0.000000 6
0.721841 0.203580 0.000000 6
0.730705 0.208974 0.000000 6
0.739539 0.214436 0.000000 6
0.748342 0.219965 0.000000 6
0.757114 0.225562 0.000000 6
0.765856 0.231225 0.000000 6
0.774566 0.236956 0.000000 6
0.783244 0.242754 0.000000 6
0.791889 0.248619 0.000000 6
0.800503 0.254550 0.000000 6
0.809083 0.260547 0.000000 6
0.817630 0.266611 0.000000 6
0.826143 0.272741 0.000000 6
0.834622 0.278937 0.000000 6
0.843067 0.285198 0.000000 6
0.851477 0.291526 0.000000 6
0.859852 0.297918 0.000000 6
0.868191 0.304376 0.000000 6
0.876494 0.310899 0.000000 6
0.884761 0.317487 0.000000 6
0.892991 0.324140 0.000000 6
0.901185 0.330857 0.000000 6
0.909340 0.337639 0.000000 6
0.917459 0.344485 0.000000 6
0.925539 0.351394 0.000000 6
0.933580 0.358368 0.000000 6
